<mxfile host="Electron" modified="2024-02-15T14:53:10.094Z" agent="Mozilla/5.0 (X11; Linux x86_64) AppleWebKit/537.36 (KHTML, like Gecko) draw.io/22.1.21 Chrome/120.0.6099.109 Electron/28.1.0 Safari/537.36" etag="2et0YQN13rzu7TcPygI6" version="22.1.21" type="device">
  <diagram name="Page-1" id="y-1cjle-SIBhv2Ze2WCQ">
    <mxGraphModel dx="1393" dy="823" grid="1" gridSize="10" guides="1" tooltips="1" connect="1" arrows="1" fold="1" page="1" pageScale="1" pageWidth="1169" pageHeight="827" math="0" shadow="0">
      <root>
        <mxCell id="0" />
        <mxCell id="1" parent="0" />
        <mxCell id="7reZL-gcOhA8HGRM4dM5-1" value="&lt;font color=&quot;#00331a&quot; style=&quot;font-size: 20px;&quot;&gt;Sensor Server&lt;/font&gt;" style="rounded=0;whiteSpace=wrap;html=1;fontStyle=1;fillColor=#cdeb8b;strokeColor=#36393d;" vertex="1" parent="1">
          <mxGeometry x="200" y="200" width="120" height="80" as="geometry" />
        </mxCell>
        <mxCell id="7reZL-gcOhA8HGRM4dM5-8" style="edgeStyle=orthogonalEdgeStyle;rounded=0;orthogonalLoop=1;jettySize=auto;html=1;entryX=0.5;entryY=0;entryDx=0;entryDy=0;fontStyle=1" edge="1" parent="1" source="7reZL-gcOhA8HGRM4dM5-3" target="7reZL-gcOhA8HGRM4dM5-1">
          <mxGeometry relative="1" as="geometry" />
        </mxCell>
        <mxCell id="7reZL-gcOhA8HGRM4dM5-3" value="&lt;font color=&quot;#333300&quot;&gt;&lt;span&gt;Light&lt;/span&gt;&lt;/font&gt;" style="rounded=0;whiteSpace=wrap;html=1;fillColor=#ffff88;strokeColor=#36393d;fontStyle=1" vertex="1" parent="1">
          <mxGeometry x="220" y="120" width="80" height="40" as="geometry" />
        </mxCell>
        <mxCell id="7reZL-gcOhA8HGRM4dM5-6" style="edgeStyle=orthogonalEdgeStyle;rounded=0;orthogonalLoop=1;jettySize=auto;html=1;entryX=0;entryY=0.25;entryDx=0;entryDy=0;fontStyle=1" edge="1" parent="1" source="7reZL-gcOhA8HGRM4dM5-4" target="7reZL-gcOhA8HGRM4dM5-1">
          <mxGeometry relative="1" as="geometry" />
        </mxCell>
        <mxCell id="7reZL-gcOhA8HGRM4dM5-4" value="&lt;font color=&quot;#331a00&quot;&gt;TEMP.&lt;/font&gt;" style="rounded=0;whiteSpace=wrap;html=1;fontStyle=1;fillColor=#ffcccc;strokeColor=#36393d;" vertex="1" parent="1">
          <mxGeometry x="80" y="180" width="80" height="40" as="geometry" />
        </mxCell>
        <mxCell id="7reZL-gcOhA8HGRM4dM5-7" style="edgeStyle=orthogonalEdgeStyle;rounded=0;orthogonalLoop=1;jettySize=auto;html=1;entryX=0;entryY=0.75;entryDx=0;entryDy=0;fontStyle=1" edge="1" parent="1" source="7reZL-gcOhA8HGRM4dM5-5" target="7reZL-gcOhA8HGRM4dM5-1">
          <mxGeometry relative="1" as="geometry" />
        </mxCell>
        <mxCell id="7reZL-gcOhA8HGRM4dM5-5" value="&lt;font color=&quot;#000033&quot;&gt;HUMI&lt;/font&gt;" style="rounded=0;whiteSpace=wrap;html=1;fontStyle=1;fillColor=#cce5ff;strokeColor=#36393d;" vertex="1" parent="1">
          <mxGeometry x="80" y="260" width="80" height="40" as="geometry" />
        </mxCell>
        <mxCell id="7reZL-gcOhA8HGRM4dM5-10" value="" style="shape=note;whiteSpace=wrap;html=1;backgroundOutline=1;darkOpacity=0.05;size=14;fontStyle=1;fillColor=#ffcd28;gradientColor=#ffa500;strokeColor=#d79b00;" vertex="1" parent="1">
          <mxGeometry x="450" y="200" width="30" height="40" as="geometry" />
        </mxCell>
        <mxCell id="7reZL-gcOhA8HGRM4dM5-11" value="" style="shape=note;whiteSpace=wrap;html=1;backgroundOutline=1;darkOpacity=0.05;size=14;fontStyle=1;fillColor=#dae8fc;gradientColor=#7ea6e0;strokeColor=#6c8ebf;" vertex="1" parent="1">
          <mxGeometry x="440" y="210" width="30" height="40" as="geometry" />
        </mxCell>
        <mxCell id="7reZL-gcOhA8HGRM4dM5-12" value="" style="shape=note;whiteSpace=wrap;html=1;backgroundOutline=1;darkOpacity=0.05;size=14;fontStyle=1;fillColor=#fff2cc;gradientColor=#ffd966;strokeColor=#d6b656;" vertex="1" parent="1">
          <mxGeometry x="430" y="220" width="30" height="40" as="geometry" />
        </mxCell>
        <mxCell id="7reZL-gcOhA8HGRM4dM5-13" value="" style="shape=flexArrow;endArrow=classic;startArrow=classic;html=1;rounded=0;fontStyle=1;fillColor=#e6d0de;gradientColor=#d5739d;strokeColor=#996185;" edge="1" parent="1">
          <mxGeometry width="100" height="100" relative="1" as="geometry">
            <mxPoint x="330" y="240" as="sourcePoint" />
            <mxPoint x="420" y="240" as="targetPoint" />
          </mxGeometry>
        </mxCell>
        <mxCell id="7reZL-gcOhA8HGRM4dM5-14" value="&lt;font color=&quot;#00331a&quot; style=&quot;font-size: 20px;&quot;&gt;Sensor Server&lt;/font&gt;" style="rounded=0;whiteSpace=wrap;html=1;fontStyle=1;fillColor=#cdeb8b;strokeColor=#36393d;" vertex="1" parent="1">
          <mxGeometry x="200" y="450" width="120" height="80" as="geometry" />
        </mxCell>
        <mxCell id="7reZL-gcOhA8HGRM4dM5-15" style="edgeStyle=orthogonalEdgeStyle;rounded=0;orthogonalLoop=1;jettySize=auto;html=1;entryX=0.5;entryY=0;entryDx=0;entryDy=0;fontStyle=1" edge="1" parent="1" source="7reZL-gcOhA8HGRM4dM5-16" target="7reZL-gcOhA8HGRM4dM5-14">
          <mxGeometry relative="1" as="geometry" />
        </mxCell>
        <mxCell id="7reZL-gcOhA8HGRM4dM5-16" value="&lt;font color=&quot;#333300&quot;&gt;&lt;span&gt;Light 1&lt;/span&gt;&lt;/font&gt;" style="rounded=0;whiteSpace=wrap;html=1;fillColor=#ffff88;strokeColor=#36393d;fontStyle=1" vertex="1" parent="1">
          <mxGeometry x="220" y="370" width="80" height="40" as="geometry" />
        </mxCell>
        <mxCell id="7reZL-gcOhA8HGRM4dM5-17" style="edgeStyle=orthogonalEdgeStyle;rounded=0;orthogonalLoop=1;jettySize=auto;html=1;entryX=0;entryY=0.25;entryDx=0;entryDy=0;fontStyle=1" edge="1" parent="1" source="7reZL-gcOhA8HGRM4dM5-18" target="7reZL-gcOhA8HGRM4dM5-14">
          <mxGeometry relative="1" as="geometry" />
        </mxCell>
        <mxCell id="7reZL-gcOhA8HGRM4dM5-18" value="&lt;font color=&quot;#331a00&quot;&gt;SW1&lt;/font&gt;" style="rounded=0;whiteSpace=wrap;html=1;fontStyle=1;fillColor=#ffcccc;strokeColor=#36393d;" vertex="1" parent="1">
          <mxGeometry x="80" y="430" width="80" height="40" as="geometry" />
        </mxCell>
        <mxCell id="7reZL-gcOhA8HGRM4dM5-19" style="edgeStyle=orthogonalEdgeStyle;rounded=0;orthogonalLoop=1;jettySize=auto;html=1;entryX=0;entryY=0.75;entryDx=0;entryDy=0;fontStyle=1" edge="1" parent="1" source="7reZL-gcOhA8HGRM4dM5-20" target="7reZL-gcOhA8HGRM4dM5-14">
          <mxGeometry relative="1" as="geometry" />
        </mxCell>
        <mxCell id="7reZL-gcOhA8HGRM4dM5-20" value="&lt;font color=&quot;#000033&quot;&gt;SW2&lt;/font&gt;" style="rounded=0;whiteSpace=wrap;html=1;fontStyle=1;fillColor=#cce5ff;strokeColor=#36393d;" vertex="1" parent="1">
          <mxGeometry x="80" y="510" width="80" height="40" as="geometry" />
        </mxCell>
        <mxCell id="7reZL-gcOhA8HGRM4dM5-21" value="" style="shape=note;whiteSpace=wrap;html=1;backgroundOutline=1;darkOpacity=0.05;size=14;fontStyle=1;fillColor=#ffcd28;gradientColor=#ffa500;strokeColor=#d79b00;" vertex="1" parent="1">
          <mxGeometry x="450" y="450" width="30" height="40" as="geometry" />
        </mxCell>
        <mxCell id="7reZL-gcOhA8HGRM4dM5-22" value="" style="shape=note;whiteSpace=wrap;html=1;backgroundOutline=1;darkOpacity=0.05;size=14;fontStyle=1;fillColor=#dae8fc;gradientColor=#7ea6e0;strokeColor=#6c8ebf;" vertex="1" parent="1">
          <mxGeometry x="440" y="460" width="30" height="40" as="geometry" />
        </mxCell>
        <mxCell id="7reZL-gcOhA8HGRM4dM5-23" value="" style="shape=note;whiteSpace=wrap;html=1;backgroundOutline=1;darkOpacity=0.05;size=14;fontStyle=1;fillColor=#fff2cc;gradientColor=#ffd966;strokeColor=#d6b656;" vertex="1" parent="1">
          <mxGeometry x="430" y="470" width="30" height="40" as="geometry" />
        </mxCell>
        <mxCell id="7reZL-gcOhA8HGRM4dM5-24" value="" style="shape=flexArrow;endArrow=classic;startArrow=classic;html=1;rounded=0;fontStyle=1;fillColor=#e6d0de;gradientColor=#d5739d;strokeColor=#996185;" edge="1" parent="1">
          <mxGeometry width="100" height="100" relative="1" as="geometry">
            <mxPoint x="330" y="490" as="sourcePoint" />
            <mxPoint x="420" y="490" as="targetPoint" />
          </mxGeometry>
        </mxCell>
        <mxCell id="7reZL-gcOhA8HGRM4dM5-26" style="edgeStyle=orthogonalEdgeStyle;rounded=0;orthogonalLoop=1;jettySize=auto;html=1;entryX=0.5;entryY=1;entryDx=0;entryDy=0;" edge="1" parent="1" source="7reZL-gcOhA8HGRM4dM5-25" target="7reZL-gcOhA8HGRM4dM5-14">
          <mxGeometry relative="1" as="geometry" />
        </mxCell>
        <mxCell id="7reZL-gcOhA8HGRM4dM5-25" value="&lt;font color=&quot;#333300&quot;&gt;&lt;span&gt;Light 2&lt;/span&gt;&lt;/font&gt;" style="rounded=0;whiteSpace=wrap;html=1;fillColor=#ffff88;strokeColor=#36393d;fontStyle=1" vertex="1" parent="1">
          <mxGeometry x="220" y="580" width="80" height="40" as="geometry" />
        </mxCell>
        <mxCell id="7reZL-gcOhA8HGRM4dM5-28" value="" style="shape=image;verticalLabelPosition=bottom;labelBackgroundColor=default;verticalAlign=top;aspect=fixed;imageAspect=0;image=https://www.pngkey.com/png/full/985-9850611_raspberry-pi-zero-w-w-python-raspberry-pi.png;" vertex="1" parent="1">
          <mxGeometry x="690" y="300" width="303" height="144.54" as="geometry" />
        </mxCell>
        <mxCell id="7reZL-gcOhA8HGRM4dM5-29" value="" style="shape=note;whiteSpace=wrap;html=1;backgroundOutline=1;darkOpacity=0.05;size=14;fontStyle=1;fillColor=#ffcd28;gradientColor=#ffa500;strokeColor=#d79b00;" vertex="1" parent="1">
          <mxGeometry x="810" y="150.03" width="30" height="40" as="geometry" />
        </mxCell>
        <mxCell id="7reZL-gcOhA8HGRM4dM5-30" value="" style="shape=note;whiteSpace=wrap;html=1;backgroundOutline=1;darkOpacity=0.05;size=14;fontStyle=1;fillColor=#dae8fc;gradientColor=#7ea6e0;strokeColor=#6c8ebf;" vertex="1" parent="1">
          <mxGeometry x="800" y="160.03" width="30" height="40" as="geometry" />
        </mxCell>
        <mxCell id="7reZL-gcOhA8HGRM4dM5-31" value="" style="shape=note;whiteSpace=wrap;html=1;backgroundOutline=1;darkOpacity=0.05;size=14;fontStyle=1;fillColor=#fff2cc;gradientColor=#ffd966;strokeColor=#d6b656;" vertex="1" parent="1">
          <mxGeometry x="790" y="170.03" width="30" height="40" as="geometry" />
        </mxCell>
        <mxCell id="7reZL-gcOhA8HGRM4dM5-32" value="" style="shape=flexArrow;endArrow=classic;startArrow=classic;html=1;rounded=0;fontStyle=1;fillColor=#e6d0de;gradientColor=#d5739d;strokeColor=#996185;entryX=0.99;entryY=0.138;entryDx=0;entryDy=0;entryPerimeter=0;" edge="1" parent="1">
          <mxGeometry width="100" height="100" relative="1" as="geometry">
            <mxPoint x="820" y="220.03" as="sourcePoint" />
            <mxPoint x="819.9700000000003" y="289.97651999999994" as="targetPoint" />
          </mxGeometry>
        </mxCell>
      </root>
    </mxGraphModel>
  </diagram>
</mxfile>
